<?xml version="1.0" encoding="UTF-8"?>
<svg version="1.1" xmlns="http://www.w3.org/2000/svg" width="1080" height="1080">
<path d="M0 0 C356.4 0 712.8 0 1080 0 C1080 356.4 1080 712.8 1080 1080 C723.6 1080 367.2 1080 0 1080 C0 723.6 0 367.2 0 0 Z " fill="#5B6ABF" transform="translate(0,0)"/>
<path d="M0 0 C125.13017079 0 125.13017079 0 146.93798828 20.67236328 C159.3612107 33.12935592 165.09948442 49.47640458 165.25 66.8125 C165.08898204 88.42468885 158.90280102 107.07612616 144 123 C137.33092886 129.41301605 129.51507223 133.7434189 121.44140625 138.1171875 C118.01680945 139.92576308 118.01680945 139.92576308 115 142 C119.38248861 147.44961941 123.78849367 152.83146925 128.5 158 C131.59555196 161.39598682 134.55151207 164.86171531 137.4375 168.4375 C140.51336588 172.24087503 143.68753166 175.90082652 147 179.5 C151.11378909 183.9698512 154.97087297 188.59044893 158.78515625 193.31640625 C160.95632827 195.94708557 163.20241357 198.47942424 165.5 201 C168.59555196 204.39598682 171.55151207 207.86171531 174.4375 211.4375 C177.51336588 215.24087503 180.68753166 218.90082652 184 222.5 C188.10270302 226.9578056 191.95302974 231.56215839 195.75 236.28125 C198.81343204 239.98289705 202.06487058 243.4966566 205.34765625 247.00390625 C207 249 207 249 207 251 C201.11487288 251.37446968 195.23683314 251.64451825 189.3425293 251.82397461 C187.34455523 251.89883223 185.34738695 252.00077958 183.35229492 252.1315918 C167.27055956 253.15859969 167.27055956 253.15859969 161.83175659 249.56893921 C158.00790852 246.10987177 155.04224126 242.14013427 152.22740173 237.83988953 C150.479051 235.21909137 148.46892165 232.8418304 146.4375 230.4375 C145.73496094 229.56996094 145.03242188 228.70242188 144.30859375 227.80859375 C141.58655909 224.4970152 138.79860269 221.24686941 136 218 C131.70022006 213.01063907 127.49514438 207.95778656 123.34375 202.84375 C120.60697951 199.52313514 117.8089705 196.25953218 115 193 C110.70265758 188.01335954 106.49896052 182.96417315 102.3515625 177.8515625 C99.1059122 173.91580716 95.77443212 170.0556401 92.42382812 166.20898438 C88.42401572 161.58710019 84.77063004 156.84795291 81 152 C65.16 151.67 49.32 151.34 33 151 C33 184 33 217 33 251 C22.11 251 11.22 251 0 251 C0 168.17 0 85.34 0 0 Z " fill="#FEFEFE" transform="translate(349,426)"/>
<path d="M0 0 C101.45630392 0 101.45630392 0 117.125 6.375 C117.91575928 6.6831665 118.70651855 6.99133301 119.52124023 7.30883789 C138.81336752 14.97814271 151.74718659 27.52611346 160.55078125 46.30859375 C167.17919778 63.65450631 167.08637636 89.00791285 159.7421875 106.18554688 C159.45601562 106.80494141 159.16984375 107.42433594 158.875 108.0625 C158.57078125 108.73732422 158.2665625 109.41214844 157.953125 110.10742188 C155.04516681 116.3193407 151.34639912 121.69739308 147 127 C146.45859375 127.70382812 145.9171875 128.40765625 145.359375 129.1328125 C131.38363986 146.43287299 108.43693402 154.29061669 87 157 C82.66780056 157.23989371 78.35337529 157.23549443 74.015625 157.1953125 C72.96616699 157.19329834 71.91670898 157.19128418 70.83544922 157.18920898 C66.97358735 157.17886821 63.11178855 157.15094732 59.25 157.125 C50.5875 157.08375 41.925 157.0425 33 157 C33 188.02 33 219.04 33 251 C22.11 251 11.22 251 0 251 C0 168.17 0 85.34 0 0 Z " fill="#FEFEFE" transform="translate(590,426)"/>
<path d="M0 0 C68.44043321 0 68.44043321 0 86 16 C96.1379289 27.7008596 97.98868451 42.04889313 97 57 C95.49316536 67.86708708 90.6059201 79.6043248 81.953125 86.671875 C58.1437952 104.41513351 28.48957896 101 0 101 C0 67.67 0 34.34 0 0 Z " fill="#5360AB" transform="translate(623,454)"/>
<path d="M0 0 C8.105625 -0.061875 16.21125 -0.12375 24.5625 -0.1875 C28.3514978 -0.22846802 28.3514978 -0.22846802 32.21704102 -0.27026367 C52.08472272 -0.39537101 71.98788981 0.87106635 87.71484375 14.484375 C94.86134478 21.83090532 97.45300842 31.62871868 97.4375 41.625 C97.07298588 57.59284181 93.49214094 71.2680576 82.14453125 82.90234375 C77.46009032 87.04313583 72.37180119 89.27496881 66.5625 91.375 C65.8710791 91.62596436 65.1796582 91.87692871 64.46728516 92.13549805 C55.38451185 95.1818479 46.01505527 95.14694219 36.5234375 95.09765625 C35.58991455 95.09664917 34.6563916 95.09564209 33.69458008 95.09460449 C30.2547073 95.0894286 26.81485223 95.07546802 23.375 95.0625 C15.66125 95.041875 7.9475 95.02125 0 95 C0 63.65 0 32.3 0 0 Z " fill="#5360AB" transform="translate(382,454)"/>
<path d="M0 0 C0.33 0 0.66 0 1 0 C1 13.53 1 27.06 1 41 C-12.53 41 -26.06 41 -40 41 C-36.77794772 39.38897386 -33.66489916 38.09649079 -30.3125 36.8125 C-17.71232801 31.5611525 -8.22889841 22.19948407 -2.96484375 9.59765625 C-1.78548854 6.42246916 -0.80417774 3.28981803 0 0 Z " fill="#000000" transform="translate(1079,1039)"/>
<path d="M0 0 C1.61857992 3.23715984 2.94284144 6.38624531 4.25 9.75 C6.52146149 15.21611931 9.11619238 19.55584203 13 24 C13.71542969 24.88945313 13.71542969 24.88945313 14.4453125 25.796875 C21.17431411 33.43885673 31.33603298 37.47306985 41 40 C41 40.33 41 40.66 41 41 C27.47 41 13.94 41 0 41 C0 27.47 0 13.94 0 0 Z " fill="#000000" transform="translate(0,1039)"/>
<path d="M0 0 C13.53 0 27.06 0 41 0 C41 13.53 41 27.06 41 41 C39.38142008 37.76284016 38.05715856 34.61375469 36.75 31.25 C34.47853851 25.78388069 31.88380762 21.44415797 28 17 C27.52304688 16.40703125 27.04609375 15.8140625 26.5546875 15.203125 C19.82568589 7.56114327 9.66396702 3.52693015 0 1 C0 0.67 0 0.34 0 0 Z " fill="#000000" transform="translate(1039,0)"/>
<path d="M0 0 C13.53 0 27.06 0 41 0 C37.76284016 1.61857992 34.61375469 2.94284144 31.25 4.25 C25.78388069 6.52146149 21.44415797 9.11619238 17 13 C16.40703125 13.47695312 15.8140625 13.95390625 15.203125 14.4453125 C7.56114327 21.17431411 3.52693015 31.33603298 1 41 C0.67 41 0.34 41 0 41 C0 27.47 0 13.94 0 0 Z " fill="#000000" transform="translate(0,0)"/>
</svg>
